<mxfile host="app.diagrams.net" agent="Mozilla/5.0 (Macintosh; Intel Mac OS X 10_15_7) AppleWebKit/537.36 (KHTML, like Gecko) Chrome/132.0.0.0 Safari/537.36" version="26.0.6">
  <diagram name="Page-1" id="ldurma7DL06uY25wETrp">
    <mxGraphModel dx="1078" dy="1850" grid="1" gridSize="10" guides="1" tooltips="1" connect="1" arrows="1" fold="1" page="1" pageScale="1" pageWidth="850" pageHeight="1100" math="0" shadow="0">
      <root>
        <mxCell id="0" />
        <mxCell id="1" parent="0" />
        <mxCell id="REy8N1wRO_hQXgHdiolt-44" value="Domain" style="rounded=1;whiteSpace=wrap;html=1;align=left;verticalAlign=top;spacingLeft=8;fontColor=#808080;strokeColor=#CCCCCC;dashed=1;spacingTop=2;arcSize=6;fillColor=#E6E6E6;fontSize=10;" vertex="1" parent="1">
          <mxGeometry x="80" y="-240" width="110" height="310" as="geometry" />
        </mxCell>
        <mxCell id="REy8N1wRO_hQXgHdiolt-92" value="components" style="rounded=1;whiteSpace=wrap;html=1;align=left;verticalAlign=top;spacingLeft=8;fontColor=#808080;strokeColor=#CCCCCC;dashed=1;spacingTop=2;arcSize=6;fillColor=#E6E6E6;fontSize=10;" vertex="1" parent="1">
          <mxGeometry x="90" y="-90" width="90" height="150" as="geometry" />
        </mxCell>
        <mxCell id="REy8N1wRO_hQXgHdiolt-45" value="Filter 1" style="rounded=1;whiteSpace=wrap;html=1;align=center;verticalAlign=middle;spacingLeft=0;fontColor=#808080;strokeColor=#CCCCCC;spacingTop=0;arcSize=6;fontStyle=0" vertex="1" parent="1">
          <mxGeometry x="100" y="-60" width="70" height="20" as="geometry" />
        </mxCell>
        <mxCell id="REy8N1wRO_hQXgHdiolt-46" value="Filter 2" style="rounded=1;whiteSpace=wrap;html=1;align=center;verticalAlign=middle;spacingLeft=0;fontColor=#808080;strokeColor=#CCCCCC;spacingTop=0;arcSize=6;fontStyle=0" vertex="1" parent="1">
          <mxGeometry x="100" y="-30" width="70" height="20" as="geometry" />
        </mxCell>
        <mxCell id="REy8N1wRO_hQXgHdiolt-47" value="Filter 3" style="rounded=1;whiteSpace=wrap;html=1;align=center;verticalAlign=middle;spacingLeft=0;fontColor=#808080;strokeColor=#CCCCCC;spacingTop=0;arcSize=6;fontStyle=0" vertex="1" parent="1">
          <mxGeometry x="100" width="70" height="20" as="geometry" />
        </mxCell>
        <mxCell id="REy8N1wRO_hQXgHdiolt-48" value="â€¦" style="rounded=1;whiteSpace=wrap;html=1;align=center;verticalAlign=middle;spacingLeft=0;fontColor=#808080;strokeColor=#CCCCCC;spacingTop=0;arcSize=6;fontStyle=0" vertex="1" parent="1">
          <mxGeometry x="100" y="30" width="70" height="20" as="geometry" />
        </mxCell>
        <mxCell id="REy8N1wRO_hQXgHdiolt-49" value="Page 1" style="rounded=1;whiteSpace=wrap;html=1;align=left;verticalAlign=top;spacingLeft=8;fontColor=#808080;strokeColor=#CCCCCC;dashed=1;spacingTop=2;arcSize=6;fontStyle=0;fontSize=10;" vertex="1" parent="1">
          <mxGeometry x="240" y="-240" width="350" height="100" as="geometry" />
        </mxCell>
        <mxCell id="REy8N1wRO_hQXgHdiolt-52" style="edgeStyle=orthogonalEdgeStyle;rounded=0;orthogonalLoop=1;jettySize=auto;html=1;" edge="1" parent="1" source="REy8N1wRO_hQXgHdiolt-50" target="REy8N1wRO_hQXgHdiolt-51">
          <mxGeometry relative="1" as="geometry" />
        </mxCell>
        <mxCell id="REy8N1wRO_hQXgHdiolt-50" value="Filter Set 1" style="rounded=1;whiteSpace=wrap;html=1;align=center;verticalAlign=middle;spacingLeft=0;fontColor=#808080;strokeColor=#CCCCCC;spacingTop=0;arcSize=6;fontStyle=0" vertex="1" parent="1">
          <mxGeometry x="250" y="-200" width="90" height="20" as="geometry" />
        </mxCell>
        <mxCell id="REy8N1wRO_hQXgHdiolt-54" style="edgeStyle=orthogonalEdgeStyle;rounded=0;orthogonalLoop=1;jettySize=auto;html=1;" edge="1" parent="1" source="REy8N1wRO_hQXgHdiolt-51" target="REy8N1wRO_hQXgHdiolt-53">
          <mxGeometry relative="1" as="geometry" />
        </mxCell>
        <mxCell id="REy8N1wRO_hQXgHdiolt-51" value="convert" style="rounded=1;whiteSpace=wrap;html=1;align=center;verticalAlign=middle;spacingLeft=0;fontColor=#808080;strokeColor=#CCCCCC;spacingTop=0;arcSize=6;fontStyle=0" vertex="1" parent="1">
          <mxGeometry x="370" y="-200" width="90" height="20" as="geometry" />
        </mxCell>
        <mxCell id="REy8N1wRO_hQXgHdiolt-95" style="edgeStyle=orthogonalEdgeStyle;rounded=0;orthogonalLoop=1;jettySize=auto;html=1;" edge="1" parent="1" source="REy8N1wRO_hQXgHdiolt-53" target="REy8N1wRO_hQXgHdiolt-94">
          <mxGeometry relative="1" as="geometry" />
        </mxCell>
        <mxCell id="REy8N1wRO_hQXgHdiolt-53" value="save" style="rounded=1;whiteSpace=wrap;html=1;align=center;verticalAlign=middle;spacingLeft=0;fontColor=#808080;strokeColor=#CCCCCC;spacingTop=0;arcSize=6;fontStyle=0" vertex="1" parent="1">
          <mxGeometry x="490" y="-200" width="90" height="20" as="geometry" />
        </mxCell>
        <mxCell id="REy8N1wRO_hQXgHdiolt-55" style="edgeStyle=orthogonalEdgeStyle;rounded=0;orthogonalLoop=1;jettySize=auto;html=1;" edge="1" parent="1" source="REy8N1wRO_hQXgHdiolt-56" target="REy8N1wRO_hQXgHdiolt-58">
          <mxGeometry relative="1" as="geometry" />
        </mxCell>
        <mxCell id="REy8N1wRO_hQXgHdiolt-56" value="Filter Set 2" style="rounded=1;whiteSpace=wrap;html=1;align=center;verticalAlign=middle;spacingLeft=0;fontColor=#808080;strokeColor=#CCCCCC;spacingTop=0;arcSize=6;fontStyle=0" vertex="1" parent="1">
          <mxGeometry x="250" y="-170" width="90" height="20" as="geometry" />
        </mxCell>
        <mxCell id="REy8N1wRO_hQXgHdiolt-57" style="edgeStyle=orthogonalEdgeStyle;rounded=0;orthogonalLoop=1;jettySize=auto;html=1;" edge="1" parent="1" source="REy8N1wRO_hQXgHdiolt-58" target="REy8N1wRO_hQXgHdiolt-59">
          <mxGeometry relative="1" as="geometry" />
        </mxCell>
        <mxCell id="REy8N1wRO_hQXgHdiolt-58" value="convert" style="rounded=1;whiteSpace=wrap;html=1;align=center;verticalAlign=middle;spacingLeft=0;fontColor=#808080;strokeColor=#CCCCCC;spacingTop=0;arcSize=6;fontStyle=0" vertex="1" parent="1">
          <mxGeometry x="370" y="-170" width="90" height="20" as="geometry" />
        </mxCell>
        <mxCell id="REy8N1wRO_hQXgHdiolt-96" style="edgeStyle=orthogonalEdgeStyle;rounded=0;orthogonalLoop=1;jettySize=auto;html=1;" edge="1" parent="1" source="REy8N1wRO_hQXgHdiolt-59" target="REy8N1wRO_hQXgHdiolt-94">
          <mxGeometry relative="1" as="geometry" />
        </mxCell>
        <mxCell id="REy8N1wRO_hQXgHdiolt-59" value="save" style="rounded=1;whiteSpace=wrap;html=1;align=center;verticalAlign=middle;spacingLeft=0;fontColor=#808080;strokeColor=#CCCCCC;spacingTop=0;arcSize=6;fontStyle=0" vertex="1" parent="1">
          <mxGeometry x="490" y="-170" width="90" height="20" as="geometry" />
        </mxCell>
        <mxCell id="REy8N1wRO_hQXgHdiolt-60" value="Page 2" style="rounded=1;whiteSpace=wrap;html=1;align=left;verticalAlign=top;spacingLeft=8;fontColor=#808080;strokeColor=#CCCCCC;dashed=1;spacingTop=2;arcSize=6;fontStyle=0;fontSize=10;" vertex="1" parent="1">
          <mxGeometry x="240" y="-120" width="350" height="70" as="geometry" />
        </mxCell>
        <mxCell id="REy8N1wRO_hQXgHdiolt-61" style="edgeStyle=orthogonalEdgeStyle;rounded=0;orthogonalLoop=1;jettySize=auto;html=1;" edge="1" parent="1" source="REy8N1wRO_hQXgHdiolt-62" target="REy8N1wRO_hQXgHdiolt-64">
          <mxGeometry relative="1" as="geometry" />
        </mxCell>
        <mxCell id="REy8N1wRO_hQXgHdiolt-62" value="Filter Set 1" style="rounded=1;whiteSpace=wrap;html=1;align=center;verticalAlign=middle;spacingLeft=0;fontColor=#808080;strokeColor=#CCCCCC;spacingTop=0;arcSize=6;fontStyle=0" vertex="1" parent="1">
          <mxGeometry x="250" y="-80" width="90" height="20" as="geometry" />
        </mxCell>
        <mxCell id="REy8N1wRO_hQXgHdiolt-63" style="edgeStyle=orthogonalEdgeStyle;rounded=0;orthogonalLoop=1;jettySize=auto;html=1;" edge="1" parent="1" source="REy8N1wRO_hQXgHdiolt-64" target="REy8N1wRO_hQXgHdiolt-65">
          <mxGeometry relative="1" as="geometry" />
        </mxCell>
        <mxCell id="REy8N1wRO_hQXgHdiolt-64" value="convert" style="rounded=1;whiteSpace=wrap;html=1;align=center;verticalAlign=middle;spacingLeft=0;fontColor=#808080;strokeColor=#CCCCCC;spacingTop=0;arcSize=6;fontStyle=0" vertex="1" parent="1">
          <mxGeometry x="370" y="-80" width="90" height="20" as="geometry" />
        </mxCell>
        <mxCell id="REy8N1wRO_hQXgHdiolt-97" style="edgeStyle=orthogonalEdgeStyle;rounded=0;orthogonalLoop=1;jettySize=auto;html=1;entryX=0;entryY=0.5;entryDx=0;entryDy=0;" edge="1" parent="1" source="REy8N1wRO_hQXgHdiolt-65" target="REy8N1wRO_hQXgHdiolt-94">
          <mxGeometry relative="1" as="geometry" />
        </mxCell>
        <mxCell id="REy8N1wRO_hQXgHdiolt-65" value="save" style="rounded=1;whiteSpace=wrap;html=1;align=center;verticalAlign=middle;spacingLeft=0;fontColor=#808080;strokeColor=#CCCCCC;spacingTop=0;arcSize=6;fontStyle=0" vertex="1" parent="1">
          <mxGeometry x="490" y="-80" width="90" height="20" as="geometry" />
        </mxCell>
        <mxCell id="REy8N1wRO_hQXgHdiolt-71" value="Page 3" style="rounded=1;whiteSpace=wrap;html=1;align=left;verticalAlign=top;spacingLeft=8;fontColor=#808080;strokeColor=#CCCCCC;dashed=1;spacingTop=2;arcSize=6;fontStyle=0;fontSize=10;" vertex="1" parent="1">
          <mxGeometry x="240" y="-30" width="350" height="100" as="geometry" />
        </mxCell>
        <mxCell id="REy8N1wRO_hQXgHdiolt-72" style="edgeStyle=orthogonalEdgeStyle;rounded=0;orthogonalLoop=1;jettySize=auto;html=1;" edge="1" parent="1" source="REy8N1wRO_hQXgHdiolt-73" target="REy8N1wRO_hQXgHdiolt-75">
          <mxGeometry relative="1" as="geometry" />
        </mxCell>
        <mxCell id="REy8N1wRO_hQXgHdiolt-73" value="Filter Set 1" style="rounded=1;whiteSpace=wrap;html=1;align=center;verticalAlign=middle;spacingLeft=0;fontColor=#808080;strokeColor=#CCCCCC;spacingTop=0;arcSize=6;fontStyle=0" vertex="1" parent="1">
          <mxGeometry x="250" y="10" width="90" height="20" as="geometry" />
        </mxCell>
        <mxCell id="REy8N1wRO_hQXgHdiolt-74" style="edgeStyle=orthogonalEdgeStyle;rounded=0;orthogonalLoop=1;jettySize=auto;html=1;" edge="1" parent="1" source="REy8N1wRO_hQXgHdiolt-75" target="REy8N1wRO_hQXgHdiolt-76">
          <mxGeometry relative="1" as="geometry" />
        </mxCell>
        <mxCell id="REy8N1wRO_hQXgHdiolt-75" value="convert" style="rounded=1;whiteSpace=wrap;html=1;align=center;verticalAlign=middle;spacingLeft=0;fontColor=#808080;strokeColor=#CCCCCC;spacingTop=0;arcSize=6;fontStyle=0" vertex="1" parent="1">
          <mxGeometry x="370" y="10" width="90" height="20" as="geometry" />
        </mxCell>
        <mxCell id="REy8N1wRO_hQXgHdiolt-98" style="edgeStyle=orthogonalEdgeStyle;rounded=0;orthogonalLoop=1;jettySize=auto;html=1;entryX=0;entryY=0.5;entryDx=0;entryDy=0;" edge="1" parent="1" source="REy8N1wRO_hQXgHdiolt-76" target="REy8N1wRO_hQXgHdiolt-94">
          <mxGeometry relative="1" as="geometry" />
        </mxCell>
        <mxCell id="REy8N1wRO_hQXgHdiolt-76" value="save" style="rounded=1;whiteSpace=wrap;html=1;align=center;verticalAlign=middle;spacingLeft=0;fontColor=#808080;strokeColor=#CCCCCC;spacingTop=0;arcSize=6;fontStyle=0" vertex="1" parent="1">
          <mxGeometry x="490" y="10" width="90" height="20" as="geometry" />
        </mxCell>
        <mxCell id="REy8N1wRO_hQXgHdiolt-77" style="edgeStyle=orthogonalEdgeStyle;rounded=0;orthogonalLoop=1;jettySize=auto;html=1;" edge="1" parent="1" source="REy8N1wRO_hQXgHdiolt-78" target="REy8N1wRO_hQXgHdiolt-80">
          <mxGeometry relative="1" as="geometry" />
        </mxCell>
        <mxCell id="REy8N1wRO_hQXgHdiolt-78" value="Filter Set 2" style="rounded=1;whiteSpace=wrap;html=1;align=center;verticalAlign=middle;spacingLeft=0;fontColor=#808080;strokeColor=#CCCCCC;spacingTop=0;arcSize=6;fontStyle=0" vertex="1" parent="1">
          <mxGeometry x="250" y="40" width="90" height="20" as="geometry" />
        </mxCell>
        <mxCell id="REy8N1wRO_hQXgHdiolt-79" style="edgeStyle=orthogonalEdgeStyle;rounded=0;orthogonalLoop=1;jettySize=auto;html=1;" edge="1" parent="1" source="REy8N1wRO_hQXgHdiolt-80" target="REy8N1wRO_hQXgHdiolt-81">
          <mxGeometry relative="1" as="geometry" />
        </mxCell>
        <mxCell id="REy8N1wRO_hQXgHdiolt-80" value="convert" style="rounded=1;whiteSpace=wrap;html=1;align=center;verticalAlign=middle;spacingLeft=0;fontColor=#808080;strokeColor=#CCCCCC;spacingTop=0;arcSize=6;fontStyle=0" vertex="1" parent="1">
          <mxGeometry x="370" y="40" width="90" height="20" as="geometry" />
        </mxCell>
        <mxCell id="REy8N1wRO_hQXgHdiolt-99" style="edgeStyle=orthogonalEdgeStyle;rounded=0;orthogonalLoop=1;jettySize=auto;html=1;entryX=0;entryY=0.5;entryDx=0;entryDy=0;" edge="1" parent="1" source="REy8N1wRO_hQXgHdiolt-81" target="REy8N1wRO_hQXgHdiolt-94">
          <mxGeometry relative="1" as="geometry" />
        </mxCell>
        <mxCell id="REy8N1wRO_hQXgHdiolt-81" value="save" style="rounded=1;whiteSpace=wrap;html=1;align=center;verticalAlign=middle;spacingLeft=0;fontColor=#808080;strokeColor=#CCCCCC;spacingTop=0;arcSize=6;fontStyle=0" vertex="1" parent="1">
          <mxGeometry x="490" y="40" width="90" height="20" as="geometry" />
        </mxCell>
        <mxCell id="REy8N1wRO_hQXgHdiolt-82" style="edgeStyle=orthogonalEdgeStyle;rounded=0;orthogonalLoop=1;jettySize=auto;html=1;entryX=0;entryY=0.5;entryDx=0;entryDy=0;fontColor=#00CC00;strokeColor=#00CC00;curved=1;endArrow=none;endFill=0;" edge="1" parent="1" source="REy8N1wRO_hQXgHdiolt-45" target="REy8N1wRO_hQXgHdiolt-50">
          <mxGeometry relative="1" as="geometry" />
        </mxCell>
        <mxCell id="REy8N1wRO_hQXgHdiolt-84" style="edgeStyle=orthogonalEdgeStyle;rounded=0;orthogonalLoop=1;jettySize=auto;html=1;fontColor=#00CC00;strokeColor=#00CC00;curved=1;endArrow=none;endFill=0;" edge="1" parent="1" source="REy8N1wRO_hQXgHdiolt-45" target="REy8N1wRO_hQXgHdiolt-62">
          <mxGeometry relative="1" as="geometry">
            <mxPoint x="190" y="-60" as="sourcePoint" />
            <mxPoint x="260" y="-180" as="targetPoint" />
          </mxGeometry>
        </mxCell>
        <mxCell id="REy8N1wRO_hQXgHdiolt-85" style="edgeStyle=orthogonalEdgeStyle;rounded=0;orthogonalLoop=1;jettySize=auto;html=1;fontColor=#00CC00;strokeColor=#00CC00;curved=1;endArrow=none;endFill=0;entryX=0;entryY=0.5;entryDx=0;entryDy=0;" edge="1" parent="1" source="REy8N1wRO_hQXgHdiolt-45" target="REy8N1wRO_hQXgHdiolt-73">
          <mxGeometry relative="1" as="geometry">
            <mxPoint x="190" y="-60" as="sourcePoint" />
            <mxPoint x="260" y="-60" as="targetPoint" />
          </mxGeometry>
        </mxCell>
        <mxCell id="REy8N1wRO_hQXgHdiolt-87" style="edgeStyle=orthogonalEdgeStyle;rounded=0;orthogonalLoop=1;jettySize=auto;html=1;entryX=0;entryY=0.5;entryDx=0;entryDy=0;fontColor=#00CC00;strokeColor=#0000FF;curved=1;endArrow=none;endFill=0;exitX=1;exitY=0.5;exitDx=0;exitDy=0;" edge="1" parent="1" source="REy8N1wRO_hQXgHdiolt-46" target="REy8N1wRO_hQXgHdiolt-56">
          <mxGeometry relative="1" as="geometry">
            <mxPoint x="190" y="-60" as="sourcePoint" />
            <mxPoint x="260" y="-180" as="targetPoint" />
          </mxGeometry>
        </mxCell>
        <mxCell id="REy8N1wRO_hQXgHdiolt-88" style="edgeStyle=orthogonalEdgeStyle;rounded=0;orthogonalLoop=1;jettySize=auto;html=1;entryX=0;entryY=0.5;entryDx=0;entryDy=0;fontColor=#00CC00;strokeColor=#0000FF;curved=1;endArrow=none;endFill=0;exitX=1;exitY=0.5;exitDx=0;exitDy=0;" edge="1" parent="1" source="REy8N1wRO_hQXgHdiolt-46" target="REy8N1wRO_hQXgHdiolt-78">
          <mxGeometry relative="1" as="geometry">
            <mxPoint x="190" y="-30" as="sourcePoint" />
            <mxPoint x="260" y="-150" as="targetPoint" />
          </mxGeometry>
        </mxCell>
        <mxCell id="REy8N1wRO_hQXgHdiolt-89" style="edgeStyle=orthogonalEdgeStyle;rounded=0;orthogonalLoop=1;jettySize=auto;html=1;entryX=0;entryY=0.5;entryDx=0;entryDy=0;fontColor=#00CC00;strokeColor=#FF3333;curved=1;endArrow=none;endFill=0;exitX=1;exitY=0.5;exitDx=0;exitDy=0;" edge="1" parent="1" source="REy8N1wRO_hQXgHdiolt-47" target="REy8N1wRO_hQXgHdiolt-62">
          <mxGeometry relative="1" as="geometry">
            <mxPoint x="190" y="-30" as="sourcePoint" />
            <mxPoint x="260" y="60" as="targetPoint" />
          </mxGeometry>
        </mxCell>
        <mxCell id="REy8N1wRO_hQXgHdiolt-91" value="Domain" style="rounded=1;whiteSpace=wrap;html=1;align=left;verticalAlign=top;spacingLeft=8;fontColor=#808080;strokeColor=#CCCCCC;dashed=1;spacingTop=2;arcSize=6;fillColor=#E6E6E6;fontSize=10;" vertex="1" parent="1">
          <mxGeometry x="620" y="-240" width="110" height="310" as="geometry" />
        </mxCell>
        <mxCell id="REy8N1wRO_hQXgHdiolt-93" value="API" style="rounded=1;whiteSpace=wrap;html=1;align=left;verticalAlign=top;spacingLeft=8;fontColor=#808080;strokeColor=#CCCCCC;dashed=1;spacingTop=2;arcSize=6;fillColor=#E6E6E6;fontSize=10;" vertex="1" parent="1">
          <mxGeometry x="90" y="-210" width="90" height="110" as="geometry" />
        </mxCell>
        <mxCell id="REy8N1wRO_hQXgHdiolt-94" value="API" style="rounded=1;whiteSpace=wrap;html=1;align=left;verticalAlign=top;spacingLeft=8;fontColor=#808080;strokeColor=#CCCCCC;dashed=1;spacingTop=2;arcSize=6;fillColor=#E6E6E6;fontSize=10;" vertex="1" parent="1">
          <mxGeometry x="630" y="-210" width="90" height="110" as="geometry" />
        </mxCell>
      </root>
    </mxGraphModel>
  </diagram>
</mxfile>
